<svg width="54" height="45" viewBox="0 0 54 45" fill="none" xmlns="http://www.w3.org/2000/svg">
<path fill-rule="evenodd" clip-rule="evenodd" d="M53.6852 21.3608L41.392 1.13924C40.9722 0.398734 40.1327 0 39.2932 0H14.7068C13.8673 0 13.0278 0.455696 12.608 1.13924L0.314825 21.3608C-0.104942 22.1013 -0.104942 22.9557 0.314825 23.6962L12.608 43.8608C13.0278 44.6013 13.8673 45 14.7068 45H39.2332C40.0727 45 40.9123 44.5443 41.332 43.8608L53.6852 23.6392C54.1049 22.9557 54.1049 22.0443 53.6852 21.3608ZM27 35.0316C19.6841 35.0316 13.8073 29.4494 13.8073 22.5C13.8073 15.5506 19.6841 9.96835 27 9.96835C34.3159 9.96835 40.1927 15.5506 40.1927 22.5C40.1927 29.4494 34.3159 35.0316 27 35.0316Z" fill="white"/>
</svg>
