<svg width="47" height="45" viewBox="0 0 47 45" fill="none" xmlns="http://www.w3.org/2000/svg">
<path d="M45.7118 10.1235L43.844 10.7535L40.5008 11.8835C37.7478 12.8125 36.6488 11.5925 35.9953 9.8495L35.8637 9.4995C35.2118 7.756 35.2529 6.151 38.0053 5.222L41.3022 4.109L43.1226 3.494C43.9351 3.22 44.071 2.552 43.4243 2.01C43.4243 2.01 42.5776 1.299 41.3296 0.7795C40.1279 0.2785 38.7983 0 37.3992 0C31.9891 0 27.6027 4.1645 27.6027 9.3025C27.6059 10.2705 27.8318 12.4365 24.7734 15.339L15.9579 23.708C12.9006 26.6115 10.62 26.3975 9.60051 26.3945C6.85387 26.3945 4.37316 27.4675 2.59542 29.1955C1.755 30.011 1.07203 30.974 0.592313 32.038C0.127869 33.067 0.0141281 33.8985 0.0141281 33.8985C-0.09856 34.7105 0.475412 35.1505 1.28792 34.875L3.15518 34.245L6.49949 33.116C9.25192 32.187 10.3509 33.407 11.0039 35.1495L11.1355 35.4995C11.7874 37.2415 11.7463 38.847 8.99442 39.777L5.69645 40.8905L3.87712 41.505C3.06461 41.779 2.92769 42.447 3.57433 42.989C3.57433 42.989 4.4216 43.7 5.66907 44.2195C6.87178 44.7215 8.20297 45 9.60104 45C15.0111 45 19.3981 40.8355 19.3981 35.6975C19.3949 34.7285 19.1695 32.563 22.2268 29.6615L31.0413 21.2915C34.0991 18.3885 36.3797 18.603 37.3981 18.606C40.1453 18.6055 42.626 17.533 44.4043 15.8045C45.2442 14.9895 45.9272 14.026 46.4069 12.962C46.8713 11.932 46.9861 11.1015 46.9861 11.1015C47.0977 10.2885 46.5243 9.8485 45.7118 10.1235Z" fill="white"/>
</svg>
