<svg width="57" height="45" viewBox="0 0 57 45" fill="none" xmlns="http://www.w3.org/2000/svg">
<path d="M53.692 19.4877H45.3583V4.85656C45.3583 2.15164 43.0681 0 40.3326 0H5.02567C2.22656 0 0 2.21311 0 4.85656V24.6516C0 27.3566 2.29018 29.5082 5.02567 29.5082H10.5603V38.9754L20.6116 29.5082H27.2913V35.5943C27.2913 37.377 28.7545 38.791 30.5993 38.791H43.5134L50.0658 45V38.791H53.692C55.5368 38.791 57 37.377 57 35.5943V22.6844C57 20.9631 55.5368 19.4877 53.692 19.4877ZM7.44308 7.9918H28.1819V9.22131H7.44308V7.9918ZM7.44308 14.3238H34.4163V15.5533H7.44308V14.3238ZM21.1842 21.8238H7.44308V20.5943H21.1842V21.8238ZM55.0915 35.6557C55.0915 36.3934 54.4554 37.0082 53.692 37.0082H50.0658H48.1574V38.8525V40.6967L44.8493 37.5615L44.2768 37.0082H43.5134H30.5993C29.8359 37.0082 29.1998 36.3934 29.1998 35.6557V22.6844C29.1998 21.9467 29.8359 21.332 30.5993 21.332H53.692C54.4554 21.332 55.0915 21.9467 55.0915 22.6844V35.6557Z" fill="white"/>
</svg>
