<svg width="27" height="36" viewBox="0 0 27 36" fill="none" xmlns="http://www.w3.org/2000/svg">
<path d="M19.5133 8.36308L24.5961 16.3081C25.9781 18.4687 21.6113 21.736 21.6113 21.736C23.3044 22.1356 24.8209 23.2066 25.8333 24.789C26.8327 26.3515 27.2069 28.2135 26.8905 30.0307C26.8534 30.2458 26.7339 30.4323 26.5615 30.5504C26.5263 30.5745 26.4895 30.5951 26.455 30.6137C26.224 30.7195 25.9567 30.7032 25.7425 30.5694L22.0905 28.2998L19.375 30.157L19.9665 34.5207C20.0017 34.7765 19.9113 35.038 19.7271 35.2162C19.5428 35.3944 19.2835 35.4629 19.0379 35.4027C17.297 34.9932 15.7858 33.9091 14.7861 32.3462C13.9725 31.0744 13.5863 29.6239 13.62 28.1905L14.0288 27.9109L15.3131 27.0324C14.9469 28.5129 15.1998 30.121 16.0639 31.472C16.6239 32.3474 17.3878 33.0314 18.2753 33.4639L17.7892 29.8834C17.7467 29.5796 17.8773 29.2813 18.1267 29.1114L21.6504 26.7008C21.8963 26.5325 22.2131 26.525 22.4663 26.6838L25.4633 28.547C25.425 27.533 25.1155 26.5388 24.5555 25.6635C23.4247 23.8962 21.4995 22.948 19.5237 23.1832C19.2379 23.2173 18.9575 23.0811 18.7993 22.8331L12.4402 12.8927L12.0009 12.2059L10.3426 12.737L10.145 12.8012L8.41664 13.3517L8.33697 13.3779C7.71451 13.5755 7.07366 13.3775 6.65038 12.9311C6.49793 12.7647 6.36692 12.5742 6.2838 12.3508C6.26886 12.3136 6.2566 12.2795 6.24473 12.2399C6.21523 12.1365 6.19761 12.03 6.18536 11.9246C6.18114 11.8894 6.18229 11.8553 6.18038 11.8236C6.1754 11.7512 6.17578 11.6799 6.17923 11.6062C6.18344 11.5701 6.18804 11.5337 6.19034 11.4941C6.20336 11.428 6.21638 11.3622 6.22941 11.2965C6.23898 11.2616 6.24856 11.2263 6.25852 11.1911C6.28304 11.1218 6.30793 11.0529 6.34011 10.9879C6.35084 10.9618 6.36156 10.9352 6.37229 10.9091C6.42017 10.8192 6.47609 10.7336 6.53547 10.6548C6.54926 10.6405 6.56305 10.6263 6.57492 10.6089C6.62817 10.5487 6.68179 10.4884 6.74232 10.4326C6.76913 10.4096 6.79786 10.3902 6.82429 10.3669C6.85723 10.3395 6.8852 10.311 6.92005 10.2868C6.94227 10.2714 6.97215 10.2607 6.99781 10.2433C7.02233 10.2314 7.04455 10.2159 7.07212 10.2021C7.1564 10.1542 7.24986 10.1138 7.34792 10.0801L11.7205 8.68034L13.3519 8.15791C13.3519 8.15791 13.4262 8.13097 13.5626 8.08503C14.5168 7.76777 18.3975 6.61874 19.5133 8.36308Z" fill="#00536D"/>
<path d="M12.2142 3.50158C12.9623 4.6712 13.3507 5.99609 13.3802 7.32018L13.3388 7.33444L11.8403 7.8133C11.907 6.63259 11.6086 5.42652 10.9363 4.37612C10.3763 3.50079 9.61248 2.81676 8.72495 2.38384L9.21104 5.9648C9.25356 6.26819 9.12294 6.56644 8.87664 6.73477L5.3495 9.14729C5.10358 9.31563 4.78679 9.32315 4.53359 9.16393L1.53659 7.30077C1.57452 8.31513 1.8844 9.30889 2.44481 10.1846C3.19291 11.3539 4.29495 12.1579 5.52608 12.5029C5.60997 12.5262 5.69271 12.5552 5.77966 12.5765L5.59427 12.7033L4.15667 13.6868C2.96768 13.1418 1.92539 12.245 1.16656 11.0592C0.167181 9.49664 -0.207061 7.63427 0.109723 5.81745C0.151859 5.5608 0.316572 5.34374 0.545254 5.23482C0.776235 5.12907 1.0436 5.14531 1.25773 5.27918L4.91013 7.54911L7.62559 5.6915L7.03378 1.3271C6.99854 1.07124 7.08894 0.809824 7.27318 0.631588C7.45973 0.456521 7.71714 0.384831 7.9623 0.445035C9.70327 0.854581 11.2148 1.93905 12.2142 3.50158Z" fill="#00536D"/>
<path d="M8.68678 14.0402L10.3515 13.4905C10.3791 14.0937 10.1106 14.7001 9.57355 15.0672L9.52873 15.0977L9.41381 15.1765L8.15855 16.0352L3.49106 19.2279C2.69891 19.7697 1.64437 19.565 1.13529 18.7689C0.62813 17.9763 0.857961 16.8927 1.6505 16.3509L4.97615 14.0762L5.90927 13.4382C6.49649 14.1337 7.46446 14.4402 8.39834 14.1341L8.68678 14.0402Z" fill="#00536D"/>
<path d="M9.97063 15.788C10.7597 15.2481 11.8085 15.4517 12.3161 16.2447C12.8213 17.0341 12.5922 18.1122 11.8031 18.6517L5.75553 22.7888C4.96951 23.3263 3.92072 23.1227 3.41547 22.3333C2.90831 21.5403 3.137 20.4626 3.92302 19.9251L9.97063 15.788Z" fill="#00536D"/>
<path d="M12.1711 19.2268C12.9602 18.6874 14.0067 18.8878 14.5077 19.6704C15.013 20.4598 14.7797 21.5312 13.9906 22.0715L13.8309 22.1804L7.94293 26.2081C7.1569 26.7452 6.11231 26.5483 5.60706 25.7586C5.10603 24.9755 5.33701 23.9013 6.12304 23.3635L12.1711 19.2268Z" fill="#00536D"/>
<path d="M14.3725 22.6688C15.162 22.1293 16.2043 22.323 16.7011 23.0993C17.1998 23.8792 16.9666 24.9502 16.1775 25.49L15.6569 25.8461L13.606 27.249L10.1302 29.6267C9.34417 30.1641 8.29958 29.9669 7.80047 29.1874C7.30403 28.4111 7.53922 27.3433 8.32525 26.8054L12.964 23.6324L14.2132 22.7781L14.3725 22.6688Z" fill="#00536D"/>
</svg>
