<svg width="32" height="26" viewBox="0 0 32 26" fill="none" xmlns="http://www.w3.org/2000/svg">
<path fill-rule="evenodd" clip-rule="evenodd" d="M1.7578 14.0778C1.79772 13.8462 1.91746 13.5761 2.11703 13.3831C1.59814 13.3831 1.11917 13.3831 0.600277 13.3831C-0.83665 12.8427 0.640191 10.72 1.55823 10.1797C2.15695 10.1797 2.75567 10.1797 3.31447 10.1797C4.07285 8.17273 4.83123 6.12719 5.58961 4.08165C6.14841 3.03958 6.82696 2.38346 7.62525 2.0361C12.6545 0.453704 19.3602 0.453704 24.3495 2.0361C25.1877 2.38346 25.8662 3.03958 26.425 4.08165C27.1834 6.12719 27.9418 8.17273 28.6603 10.1797C29.259 10.1797 29.8577 10.1797 30.4165 10.1797C31.3745 10.72 32.8513 12.8427 31.3745 13.3831C30.8955 13.3831 30.3766 13.3831 29.8976 13.3831C30.0573 13.5761 30.2169 13.8462 30.2568 14.0778C30.2169 17.6671 30.2968 21.2565 30.2968 24.8458C30.2968 25.3862 29.8178 25.8493 29.2191 25.8493H24.8684C24.2697 25.8493 23.7907 25.3862 23.7907 24.8458V22.6459H8.18406V24.8458C8.18406 25.3862 7.70508 25.8493 7.14628 25.8493H2.75567C2.19686 25.8493 1.71789 25.3862 1.71789 24.8458C1.71789 21.2565 1.7578 17.6671 1.7578 14.0778ZM10.1399 3.50272C9.22184 3.6957 8.50337 3.85008 7.90465 4.54479C7.18619 6.51314 6.42781 8.71306 5.74926 10.6814C12.8142 12.148 19.1606 12.148 26.2654 10.6814C25.5469 8.71306 24.7885 6.51314 24.11 4.54479C23.5113 3.85008 22.7529 3.6957 21.8748 3.50272C18.6018 2.69222 13.4129 2.69222 10.1399 3.50272ZM28.4208 17.204C28.4208 16.5479 28.4208 15.9304 28.4208 15.3128C27.9418 14.4637 27.3032 14.6953 26.425 14.6953C24.6289 15.2742 23.2718 15.7374 21.8748 16.7409C21.7949 17.1268 21.8748 17.8215 22.3538 18.0145C23.9104 18.0145 25.4671 18.0531 26.9838 18.0531C27.5427 17.8987 28.0216 17.6285 28.4208 17.204ZM3.59387 17.204C3.59387 16.5479 3.59387 15.9304 3.59387 15.3128C4.03294 14.4637 4.71148 14.6953 5.58961 14.6953C7.38576 15.2742 8.74286 15.7374 10.1 16.7409C10.1798 17.1268 10.1399 17.8215 9.6609 18.0145C8.10423 18.0145 6.54756 18.0531 4.99089 18.0531C4.43208 17.8987 3.99302 17.6285 3.59387 17.204Z" fill="#00536D"/>
</svg>
