<svg width="24" height="31" viewBox="0 0 24 31" fill="none" xmlns="http://www.w3.org/2000/svg">
<path d="M20.3649 7.81192H3.66602V9.67669H20.3649V7.81192Z" fill="#00536D"/>
<path d="M20.3649 3.93005H3.66602V5.79483H20.3649V3.93005Z" fill="#00536D"/>
<path d="M20.3649 11.6934H3.66602V13.5583H20.3649V11.6934Z" fill="#00536D"/>
<path d="M11.6124 15.5756H3.66602V17.4404H11.6124V15.5756Z" fill="#00536D"/>
<path d="M21.798 0.136719H2.20164C0.986087 0.136719 0 1.14387 0 2.38688V26.7657C0 28.009 0.986087 29.0155 2.20164 29.0155H13.2291V27.4609H3.13093C2.3198 27.4609 1.66274 26.789 1.66274 25.961V3.19153C1.66274 2.36319 2.3198 1.69165 3.13093 1.69165H20.8687C21.6792 1.69165 22.3369 2.36319 22.3369 3.19153V25.9607C22.3369 26.7887 21.6792 27.4606 20.8687 27.4606H20.275V29.0152H21.798C23.0142 29.0152 24 28.008 24 26.7653V2.38688C24 1.14387 23.0136 0.136719 21.798 0.136719Z" fill="#00536D"/>
<path d="M20.2607 21.5391L22.1418 20.624L20.2738 19.6826L21.4551 17.9295L19.3761 18.0686L19.5426 15.9462L17.8097 17.1282L16.915 15.2056L15.9935 17.1145L14.2779 15.9082L14.4137 18.0319L12.3377 17.8631L13.4945 19.6332L11.613 20.548L13.4811 21.4894L12.2998 23.2428L14.3781 23.1044L14.2123 25.2257L15.9452 24.0431L16.8402 25.9663L17.7614 24.0571L19.4767 25.2641L19.3415 23.1404L21.4175 23.3102L20.2607 21.5391ZM19.8194 19.6876L16.8608 23.2655C16.7119 23.4476 16.4906 23.5531 16.2579 23.5547C16.2566 23.5547 16.2546 23.5547 16.2527 23.5547C16.0219 23.5547 15.8026 23.452 15.6511 23.2752L14.3291 21.7249C14.0399 21.385 14.0745 20.8706 14.4058 20.5753C14.7385 20.2794 15.2421 20.3148 15.5313 20.6544L16.2422 21.4884L18.6016 18.6361C18.8849 18.2925 19.3885 18.2484 19.7248 18.5397C20.061 18.8302 20.1034 19.344 19.8194 19.6876Z" fill="#00536D"/>
<path d="M19.4763 30.1367L16.8366 27.8655L14.2119 30.1367V25.7001L15.8789 24.8551L16.8366 26.6612L17.8351 24.8604L19.4763 25.7001V30.1367Z" fill="#00536D"/>
</svg>
