<svg width="139" height="40" viewBox="0 0 139 40" fill="none" xmlns="http://www.w3.org/2000/svg">
<path d="M55.02 14.4C56.136 14.4 57.102 14.586 57.918 14.958C58.746 15.33 59.382 15.858 59.826 16.542C60.27 17.226 60.492 18.036 60.492 18.972C60.492 19.896 60.27 20.706 59.826 21.402C59.382 22.086 58.746 22.614 57.918 22.986C57.102 23.346 56.136 23.526 55.02 23.526H52.482V27H49.566V14.4H55.02ZM54.858 21.15C55.734 21.15 56.4 20.964 56.856 20.592C57.312 20.208 57.54 19.668 57.54 18.972C57.54 18.264 57.312 17.724 56.856 17.352C56.4 16.968 55.734 16.776 54.858 16.776H52.482V21.15H54.858ZM71.596 22.194C71.596 22.23 71.578 22.482 71.542 22.95H64.216C64.348 23.55 64.66 24.024 65.152 24.372C65.644 24.72 66.256 24.894 66.988 24.894C67.492 24.894 67.936 24.822 68.32 24.678C68.716 24.522 69.082 24.282 69.418 23.958L70.912 25.578C70 26.622 68.668 27.144 66.916 27.144C65.824 27.144 64.858 26.934 64.018 26.514C63.178 26.082 62.53 25.488 62.074 24.732C61.618 23.976 61.39 23.118 61.39 22.158C61.39 21.21 61.612 20.358 62.056 19.602C62.512 18.834 63.13 18.24 63.91 17.82C64.702 17.388 65.584 17.172 66.556 17.172C67.504 17.172 68.362 17.376 69.13 17.784C69.898 18.192 70.498 18.78 70.93 19.548C71.374 20.304 71.596 21.186 71.596 22.194ZM66.574 19.296C65.938 19.296 65.404 19.476 64.972 19.836C64.54 20.196 64.276 20.688 64.18 21.312H68.95C68.854 20.7 68.59 20.214 68.158 19.854C67.726 19.482 67.198 19.296 66.574 19.296ZM83.1984 27V21.204L80.3004 26.064H79.1124L76.2864 21.186V27H73.7484V17.316H76.6824L79.7784 22.914L83.0724 17.316H85.7004L85.7364 27H83.1984Z" fill="#282828"/>
<path d="M100.108 27L100.09 19.458L96.3822 25.668H95.0862L91.3782 19.602V27H88.6422V14.4H91.0542L95.7702 22.23L100.414 14.4H102.826L102.844 27H100.108ZM114.506 24.3H108.656L107.54 27H104.552L110.168 14.4H113.048L118.682 27H115.622L114.506 24.3ZM113.588 22.086L111.59 17.262L109.592 22.086H113.588ZM136.985 14.4V27H120.353V14.4H123.251V24.624H127.229V14.4H130.127V24.624H134.087V14.4H136.985Z" fill="#00536D"/>
<path d="M1.84349 3.0163e-05C1.60131 -0.00135477 1.36126 0.0449662 1.13721 0.136134C0.913155 0.227301 0.709538 0.361559 0.538124 0.531232C0.366711 0.700905 0.230899 0.902473 0.138537 1.12451C0.0461744 1.34654 -0.000906793 1.58455 1.35e-05 1.82474V38.1751C-0.00091597 38.4152 0.0461587 38.6532 0.138517 38.8753C0.230875 39.0973 0.366685 39.2991 0.5381 39.4688C0.709514 39.6384 0.913135 39.7727 1.13719 39.8639C1.36125 39.955 1.60131 40.0014 1.84349 40H31.1601C31.402 40.0009 31.6416 39.9542 31.8653 39.8628C32.0889 39.7714 32.2921 39.6371 32.4632 39.4675C32.6342 39.2979 32.7697 39.0963 32.8618 38.8744C32.954 38.6526 33.0009 38.4149 33 38.1751V1.82474C33.0009 1.58485 32.9539 1.34715 32.8618 1.12535C32.7697 0.903545 32.6342 0.702116 32.4631 0.53249C32.2921 0.362864 32.0889 0.22835 31.8653 0.136972C31.6416 0.0455945 31.402 -0.000884513 31.1601 3.0163e-05H1.84349ZM3.66906 3.6354H29.3345V7.27433H3.66906V3.6354ZM3.66906 10.9097H29.3345V36.3644H3.66906V10.9097ZM16.5089 14.5451C11.4697 14.5451 7.33453 18.632 7.33453 23.63C7.33453 28.6279 11.4697 32.7255 16.5089 32.7255C21.5482 32.7255 25.6655 28.6279 25.6655 23.63C25.6655 18.632 21.5482 14.5451 16.5089 14.5451ZM16.5089 18.1804C19.5672 18.1804 22 20.5968 22 23.63C22 26.6632 19.5672 29.0901 16.5089 29.0901C13.4507 29.0901 11 26.6632 11 23.63C11 20.5968 13.4507 18.1804 16.5089 18.1804Z" fill="#00536D"/>
</svg>
