<svg width="50" height="50" viewBox="0 0 50 50" fill="none" xmlns="http://www.w3.org/2000/svg">
<path d="M25 0C18.3297 0 12.0549 2.59465 7.32967 7.31626C2.6044 12.0379 0 18.3185 0 25C0 31.6815 2.6044 37.9621 7.32967 42.6837C12.0549 47.4053 18.3187 50 25 50C31.6813 50 37.9451 47.4053 42.6703 42.6837C47.3956 37.9621 50 31.6815 50 25C50 18.3185 47.3956 12.0379 42.6703 7.31626C37.9451 2.59465 31.6703 0 25 0ZM25 46.6592C13.033 46.6592 3.2967 36.9376 3.2967 25C3.2967 13.0624 13.033 3.34076 25 3.34076C36.967 3.34076 46.7033 13.0624 46.7033 25C46.7033 36.9376 36.967 46.6592 25 46.6592Z" fill="#00536D"/>
<path d="M35.7802 32.2384L26.4285 24.9444V10.5346C26.4285 9.61036 25.6923 8.86426 24.7802 8.86426C23.8681 8.86426 23.1318 9.61036 23.1318 10.5346V25.7685C23.1318 26.2919 23.3516 26.7819 23.7582 27.0937L33.7692 34.8888C34.0659 35.1226 34.4176 35.234 34.7692 35.234C35.2637 35.234 35.7582 35.0113 36.0879 34.577C36.6373 33.8531 36.5055 32.8064 35.7802 32.2384Z" fill="#00536D"/>
</svg>
