<svg width="40" height="50" viewBox="0 0 40 50" fill="none" xmlns="http://www.w3.org/2000/svg">
<path d="M38.908 8.57143H37.0115L35.0575 0.833333C34.9425 0.357143 34.4828 0 33.9655 0H6.03448C5.51724 0 5.11494 0.357143 4.94253 0.833333L2.98851 8.57143H1.09195C0.45977 8.57143 0 9.10714 0 9.70238V48.869C0 49.5238 0.517242 50 1.09195 50H38.908C39.5402 50 40 49.4643 40 48.869V9.70238C40 9.04762 39.5402 8.57143 38.908 8.57143ZM6.83908 2.2619H33.1034L34.7126 8.5119H5.28736L6.83908 2.2619ZM37.8161 47.7381H2.18391V10.8333H3.73563C3.7931 10.8333 3.7931 10.8333 3.85057 10.8333H36.2069C36.2644 10.8333 36.2644 10.8333 36.3218 10.8333H37.8161V47.7381ZM20 13.0357C11.3218 13.0357 4.31035 20.3571 4.31035 29.2857C4.31035 38.2738 11.3793 45.5357 20 45.5357C28.6782 45.5357 35.6897 38.2143 35.6897 29.2857C35.6897 20.2976 28.6782 13.0357 20 13.0357ZM20 43.2738C12.5862 43.2738 6.49425 37.0238 6.49425 29.2857C6.49425 21.6071 12.5287 15.2976 20 15.2976C27.4138 15.2976 33.5057 21.5476 33.5057 29.2857C33.5057 36.9643 27.4138 43.2738 20 43.2738ZM14.8276 26.8452H14.5977C15.5172 24.7024 17.5862 23.2143 20 23.2143C20.6322 23.2143 21.092 22.6786 21.092 22.0833C21.092 21.4881 20.5747 20.9524 20 20.9524C16.3218 20.9524 13.2759 23.4524 12.2414 26.9048H11.6092C11.1494 26.9048 10.7471 27.2024 10.5747 27.619C10.4023 28.0357 10.5172 28.5714 10.8046 28.869L12.4138 30.5357C12.6437 30.7738 12.931 30.8929 13.2184 30.8929C13.5057 30.8929 13.7931 30.7738 14.023 30.5357L15.6322 28.869C15.977 28.5119 16.0345 28.0357 15.8621 27.619C15.6897 27.2024 15.2874 26.8452 14.8276 26.8452ZM27.5862 28.0952C27.1264 27.619 26.4368 27.619 26.0345 28.0952L24.3678 29.7619C24.023 30.119 23.9655 30.5952 24.1379 31.0119C24.3103 31.4286 24.7126 31.7262 25.1724 31.7262H25.4023C24.4828 33.869 22.4138 35.3571 20 35.3571C19.3678 35.3571 18.908 35.8929 18.908 36.4881C18.908 37.0833 19.4253 37.619 20 37.619C23.6782 37.619 26.7241 35.119 27.7586 31.6667H28.3908C28.8506 31.6667 29.2529 31.369 29.4253 30.9524C29.5977 30.5357 29.4828 30 29.1954 29.7024L27.5862 28.0952ZM12.6437 4.10714H9.48276C8.7931 4.10714 8.21839 4.70238 8.21839 5.41667C8.21839 6.13095 8.7931 6.72619 9.48276 6.72619H12.6437C13.3333 6.72619 13.908 6.13095 13.908 5.41667C13.908 4.70238 13.3908 4.10714 12.6437 4.10714ZM30.3448 4.10714C29.6552 4.10714 29.0805 4.70238 29.0805 5.41667C29.0805 6.13095 29.6552 6.72619 30.3448 6.72619C31.0345 6.72619 31.6092 6.13095 31.6092 5.41667C31.6092 4.70238 31.0345 4.10714 30.3448 4.10714Z" fill="#00536D"/>
</svg>
