<svg width="50" height="50" viewBox="0 0 50 50" fill="none" xmlns="http://www.w3.org/2000/svg">
<path d="M37.1427 29.5296L33.3219 26.6103C32.6742 26.118 31.8707 25.8762 31.059 25.9296C30.2474 25.9829 29.4823 26.3277 28.9046 26.9006L27.443 28.363C26.3306 28.079 25.2965 27.5479 24.4175 26.8092L24.2885 26.7017C23.929 26.3996 23.5963 26.0668 23.2944 25.707L23.1869 25.578C22.4478 24.697 21.917 23.6605 21.6339 22.5458L23.0956 21.0834C23.669 20.5043 24.0133 19.737 24.0646 18.9234C24.116 18.1099 23.871 17.3053 23.375 16.6587L20.4517 12.8361C19.9727 12.2103 19.2973 11.764 18.534 11.569C17.7708 11.374 16.9642 11.4415 16.244 11.7608L15.8087 11.949C14.5442 12.5065 13.4647 13.413 12.6966 14.5623C11.9286 15.7116 11.5038 17.0561 11.472 18.4382C11.3739 23.0836 12.9667 27.6063 15.9538 31.164L16.1419 31.3898C16.8848 32.2743 17.7029 33.0928 18.5869 33.8361L18.8126 34.0242C22.2638 36.9215 26.6242 38.5108 31.1294 38.5135H31.527C32.9087 38.4824 34.2528 38.0576 35.4016 37.2891C36.5505 36.5206 37.4565 35.4403 38.0132 34.1748L38.2013 33.7393C38.5221 33.0205 38.5922 32.2146 38.4002 31.4512C38.2082 30.6877 37.7653 30.011 37.1427 29.5296ZM35.767 32.6587L35.5789 33.0941C35.2284 33.8909 34.6579 34.5712 33.9345 35.055C33.2111 35.5387 32.3647 35.806 31.4948 35.8253C27.5045 35.9074 23.6189 34.5441 20.5538 31.9866L20.3281 31.7984C19.5625 31.1548 18.8541 30.446 18.2108 29.6802L18.0012 29.4275C15.4424 26.3669 14.081 22.4811 14.1697 18.492C14.19 17.6226 14.4576 16.777 14.9411 16.0542C15.4246 15.3315 16.104 14.7616 16.8996 14.4113L17.3349 14.2232C17.5054 14.1479 17.6964 14.1324 17.8768 14.1792C18.0572 14.2261 18.2166 14.3325 18.329 14.4812L21.2255 18.2931C21.3242 18.4232 21.3726 18.5847 21.3617 18.7477C21.3509 18.9107 21.2815 19.0643 21.1664 19.1802L19.1942 21.1533C19.0435 21.304 18.9308 21.4884 18.8654 21.6912C18.8 21.8941 18.7838 22.1096 18.818 22.3199C19.1169 24.1567 19.9059 25.8786 21.1019 27.3038L21.2094 27.4328C21.6175 27.9139 22.067 28.3583 22.5528 28.7608L22.6818 28.8683C24.11 30.0647 25.8349 30.8523 27.674 31.1479C27.8843 31.1817 28.0996 31.1653 28.3023 31.0998C28.5049 31.0344 28.6893 30.9219 28.8401 30.7716L30.8123 28.7984C30.9301 28.6893 31.0829 28.6255 31.2434 28.6186C31.4038 28.6117 31.5615 28.6621 31.6883 28.7608L35.509 31.6855C35.652 31.7975 35.7542 31.9535 35.7998 32.1294C35.8455 32.3052 35.832 32.4912 35.7616 32.6587H35.767ZM7.32886 7.30919C3.46473 11.1667 0.971345 16.1853 0.230769 21.5961C-0.509806 27.0069 0.543276 32.5114 3.22865 37.2662L1.13288 44.4705C0.955397 45.0801 0.944916 45.7262 1.10253 46.3412C1.26014 46.9563 1.58006 47.5176 2.02881 47.9666C2.47756 48.4156 3.03866 48.7356 3.6534 48.8933C4.26815 49.051 4.91395 49.0405 5.52326 48.863L12.7295 46.7716C16.7815 49.0596 21.3914 50.1704 26.0403 49.9788C30.6891 49.7872 35.1922 48.3009 39.0423 45.6872C42.8925 43.0734 45.9367 39.4362 47.8323 35.185C49.7278 30.9338 50.3994 26.2376 49.7713 21.6252C49.1432 17.0128 47.2404 12.6674 44.2772 9.07853C41.314 5.48961 37.4082 2.79968 32.9995 1.31167C28.5908 -0.176335 23.8544 -0.403308 19.3238 0.656312C14.7932 1.71593 10.6482 4.02006 7.35573 7.30919H7.32886ZM40.77 40.7608C37.2661 44.275 32.6898 46.5182 27.7669 47.1347C22.844 47.7512 17.8562 46.7057 13.5947 44.164C13.4347 44.0682 13.2565 44.0068 13.0715 43.9837C12.8864 43.9605 12.6986 43.9762 12.5199 44.0296L4.77093 46.2823C4.62138 46.3304 4.46148 46.3362 4.3088 46.2993C4.15613 46.2623 4.01659 46.184 3.90551 46.0729C3.79444 45.9617 3.71614 45.8221 3.67921 45.6694C3.64228 45.5166 3.64815 45.3567 3.69617 45.207L5.94779 37.449C6.00122 37.2702 6.01686 37.0823 5.99373 36.8972C5.9706 36.7121 5.9092 36.5338 5.81345 36.3737C3.67763 32.7844 2.59183 28.6673 2.67965 24.491C2.76747 20.3147 4.02536 16.2469 6.31017 12.7506C8.59498 9.25432 11.8149 6.46997 15.6036 4.71443C19.3922 2.9589 23.5974 2.30269 27.7404 2.8205C31.8834 3.33831 35.798 5.00933 39.0385 7.64339C42.2791 10.2775 44.7154 13.7687 46.0703 17.7199C47.4252 21.6711 47.6442 25.9235 46.7024 29.993C45.7606 34.0626 43.6959 37.786 40.7431 40.7393L40.77 40.7608Z" fill="#00536D"/>
</svg>
