<svg width="39" height="50" viewBox="0 0 39 50" fill="none" xmlns="http://www.w3.org/2000/svg">
<path d="M2.79904 50H36.201C36.9433 50 37.6553 49.7019 38.1802 49.1714C38.7051 48.6408 39 47.9212 39 47.1709V2.82912C39 2.07879 38.7051 1.35919 38.1802 0.82863C37.6553 0.298067 36.9433 0 36.201 0H2.79904C2.05669 0 1.34474 0.298067 0.819821 0.82863C0.294899 1.35919 0 2.07879 0 2.82912V47.1709C0 47.9212 0.294899 48.6408 0.819821 49.1714C1.34474 49.7019 2.05669 50 2.79904 50ZM1.86603 2.84798C1.86603 2.59787 1.96433 2.35801 2.1393 2.18115C2.31428 2.0043 2.55159 1.90494 2.79904 1.90494H36.201C36.4484 1.90494 36.6857 2.0043 36.8607 2.18115C37.0357 2.35801 37.134 2.59787 37.134 2.84798V11.6497H1.84115L1.86603 2.84798ZM1.86603 13.5358H37.134V47.1709C37.134 47.421 37.0357 47.6609 36.8607 47.8377C36.6857 48.0146 36.4484 48.1139 36.201 48.1139H2.79904C2.55159 48.1139 2.31428 48.0146 2.1393 47.8377C1.96433 47.6609 1.86603 47.421 1.86603 47.1709V13.5358Z" fill="#00536D"/>
<path d="M19.5934 44.8006C22.3566 44.8068 25.0594 43.9843 27.3599 42.4372C29.6604 40.8901 31.455 38.688 32.5167 36.1095C33.5784 33.531 33.8594 30.6921 33.3241 27.9522C32.7888 25.2122 31.4613 22.6944 29.5096 20.7174C27.558 18.7403 25.0699 17.3929 22.3602 16.8458C19.6506 16.2986 16.8413 16.5763 14.2879 17.6436C11.7345 18.711 9.55173 20.52 8.01595 22.8417C6.48018 25.1635 5.66041 27.8936 5.6604 30.6864C5.66367 34.4233 7.13167 38.0066 9.74302 40.6519C12.3544 43.2972 15.8963 44.7889 19.5934 44.8006ZM19.5934 18.4646C21.9878 18.4584 24.3301 19.1704 26.3238 20.5105C28.3176 21.8507 29.8731 23.7586 30.7933 25.9928C31.7136 28.227 31.9573 30.687 31.4935 33.0613C31.0297 35.4355 29.8793 37.6173 28.188 39.3303C26.4966 41.0433 24.3404 42.2106 21.9924 42.6842C19.6443 43.1579 17.21 42.9167 14.9977 41.9911C12.7853 41.0656 10.8945 39.4973 9.56448 37.4849C8.23449 35.4725 7.52521 33.1065 7.52643 30.6864C7.5297 27.4498 8.8011 24.3462 11.0625 22.0546C13.3239 19.763 16.3912 18.47 19.5934 18.4583V18.4646Z" fill="#00536D"/>
<path d="M19.5933 38.9602C21.2135 38.9665 22.7992 38.4865 24.1494 37.5812C25.4996 36.6759 26.5536 35.3859 27.178 33.8747C27.8023 32.3634 27.9688 30.6989 27.6565 29.0919C27.3442 27.4849 26.567 26.0077 25.4235 24.8475C24.28 23.6873 22.8215 22.8962 21.2328 22.5744C19.6441 22.2526 17.9966 22.4146 16.4991 23.0399C15.0015 23.6651 13.7213 24.7256 12.8204 26.0868C11.9196 27.4481 11.4387 29.0489 11.4387 30.6866C11.442 32.8745 12.3012 34.9722 13.8289 36.5222C15.3565 38.0722 17.4287 38.9486 19.5933 38.9602ZM19.5933 24.274C20.8434 24.2678 22.0673 24.6365 23.1101 25.3334C24.1529 26.0304 24.9677 27.0243 25.4515 28.1895C25.9353 29.3546 26.0664 30.6386 25.8281 31.879C25.5897 33.1195 24.9928 34.2606 24.1127 35.158C23.2326 36.0555 22.109 36.6689 20.8839 36.9208C19.6588 37.1726 18.3874 37.0516 17.2304 36.5729C16.0734 36.0942 15.0829 35.2795 14.3841 34.2317C13.6853 33.1839 13.3097 31.9502 13.3047 30.6866C13.2998 28.9941 13.9589 27.3687 15.1377 26.1666C16.3165 24.9646 17.9188 24.2839 19.5933 24.274Z" fill="#00536D"/>
<path d="M6.65559 7.8463C7.21898 7.8463 7.67569 7.38467 7.67569 6.81524C7.67569 6.2458 7.21898 5.78418 6.65559 5.78418C6.09221 5.78418 5.6355 6.2458 5.6355 6.81524C5.6355 7.38467 6.09221 7.8463 6.65559 7.8463Z" fill="#00536D"/>
<path d="M10.91 7.8463C11.4734 7.8463 11.9301 7.38467 11.9301 6.81524C11.9301 6.2458 11.4734 5.78418 10.91 5.78418C10.3466 5.78418 9.88989 6.2458 9.88989 6.81524C9.88989 7.38467 10.3466 7.8463 10.91 7.8463Z" fill="#00536D"/>
<path d="M15.1585 7.8463C15.7219 7.8463 16.1786 7.38467 16.1786 6.81524C16.1786 6.2458 15.7219 5.78418 15.1585 5.78418C14.5951 5.78418 14.1384 6.2458 14.1384 6.81524C14.1384 7.38467 14.5951 7.8463 15.1585 7.8463Z" fill="#00536D"/>
</svg>
