<svg width="21" height="21" viewBox="0 0 21 21" fill="none" xmlns="http://www.w3.org/2000/svg">
<path d="M0.00446488 14.6575C0.00446488 17.6096 2.24251 20.0025 5.0034 20.0025C7.76433 20.0025 10.0024 17.6096 10.0024 14.6575C10.0024 11.7054 7.76433 9.31248 5.0034 9.31248C4.43599 9.31248 3.89285 9.41824 3.38439 9.60462C4.50936 2.70592 9.5407 -1.74296 4.87666 1.91855C-0.295049 5.97877 -0.00107401 14.4941 0.00471289 14.6502C0.00471289 14.6526 0.00446488 14.6548 0.00446488 14.6575Z" fill="#00536D"/>
<path d="M11.002 14.6575C11.002 17.6096 13.2401 20.0025 16.001 20.0025C18.7619 20.0025 21 17.6096 21 14.6575C21 11.7054 18.7619 9.31248 16.001 9.31248C15.4335 9.31248 14.8904 9.41824 14.382 9.60462C15.5069 2.70592 20.5383 -1.74296 15.8742 1.91855C10.7025 5.97877 10.9965 14.4941 11.0023 14.6502C11.0023 14.6526 11.002 14.6548 11.002 14.6575Z" fill="#00536D"/>
</svg>
